<?xml version="1.0" standalone="no"?>
<!DOCTYPE svg PUBLIC "-//W3C//DTD SVG 20010904//EN"
 "http://www.w3.org/TR/2001/REC-SVG-20010904/DTD/svg10.dtd">
<svg version="1.0" xmlns="http://www.w3.org/2000/svg"
 width="50.000000pt" height="50.000000pt" viewBox="0 0 50.000000 50.000000"
 preserveAspectRatio="xMidYMid meet">

<g transform="translate(0.000000,50.000000) scale(0.100000,-0.100000)"
fill="#000000" stroke="none">
<path d="M330 455 c0 -19 5 -35 10 -35 6 0 10 16 10 35 0 19 -4 35 -10 35 -5
0 -10 -16 -10 -35z"/>
<path d="M206 471 c-3 -5 -5 -20 -4 -32 2 -40 -62 -171 -109 -219 -28 -29 -43
-55 -43 -71 0 -50 75 -90 108 -57 9 9 23 2 60 -35 48 -47 78 -57 100 -35 17
17 15 53 -3 68 -8 7 -15 28 -15 46 0 28 -4 34 -22 35 -15 0 3 13 50 35 40 18
76 33 80 33 19 -3 30 2 36 17 5 12 -23 47 -96 120 -94 96 -128 118 -142 95z
m127 -109 c54 -54 94 -101 90 -105 -7 -8 -203 181 -203 195 0 19 21 2 113 -90z
m-30 -144 l-78 -36 -37 35 -36 35 34 75 c19 42 34 78 34 82 0 3 36 -30 80 -74
l81 -80 -78 -37z m-128 -18 l29 -30 -34 -35 c-19 -19 -41 -35 -49 -35 -20 0
-51 30 -51 49 0 14 57 81 70 81 3 0 19 -14 35 -30z m94 -94 c29 -29 42 -50 38
-60 -10 -26 -30 -18 -77 29 -37 37 -41 46 -30 60 18 21 21 20 69 -29z m11 34
c0 -5 -2 -10 -4 -10 -3 0 -8 5 -11 10 -3 6 -1 10 4 10 6 0 11 -4 11 -10z"/>
<path d="M395 440 c-16 -16 -25 -33 -22 -37 8 -7 67 45 67 59 0 16 -17 8 -45
-22z"/>
<path d="M390 370 c0 -5 16 -10 35 -10 19 0 35 5 35 10 0 6 -16 10 -35 10 -19
0 -35 -4 -35 -10z"/>
</g>
</svg>
