<?xml version="1.0" encoding="UTF-8" standalone="no"?><svg xmlns="http://www.w3.org/2000/svg" xmlns:xlink="http://www.w3.org/1999/xlink" fill="#000000" height="1359.7" preserveAspectRatio="xMidYMid meet" version="1" viewBox="546.4 546.4 1359.7 1359.7" width="1359.7" zoomAndPan="magnify"><g id="change1_1"><path d="M 1506.277344 1124.238281 C 1457.550781 1124.238281 1418 1084.722656 1418 1035.960938 C 1418 987.242188 1457.550781 947.707031 1506.277344 947.707031 C 1555.042969 947.707031 1594.542969 987.242188 1594.542969 1035.960938 C 1594.542969 1084.722656 1555.042969 1124.238281 1506.277344 1124.238281 Z M 1535.828125 1531.917969 C 1449.117188 1604.039062 1339.175781 1643.765625 1226.257812 1643.765625 C 1208.378906 1643.765625 1193.878906 1629.265625 1193.878906 1611.386719 C 1193.878906 1593.515625 1208.378906 1579.015625 1226.257812 1579.015625 C 1324.066406 1579.015625 1419.3125 1544.605469 1494.421875 1482.136719 C 1508.160156 1470.667969 1528.589844 1472.585938 1540.015625 1486.328125 C 1551.441406 1500.066406 1549.570312 1520.464844 1535.828125 1531.917969 Z M 946.191406 1124.238281 C 897.464844 1124.238281 857.921875 1084.722656 857.921875 1035.960938 C 857.921875 987.242188 897.464844 947.707031 946.191406 947.707031 C 994.964844 947.707031 1034.464844 987.242188 1034.464844 1035.960938 C 1034.464844 1084.722656 994.964844 1124.238281 946.191406 1124.238281 Z M 1226.257812 546.410156 C 851.390625 546.410156 546.417969 851.386719 546.417969 1226.242188 C 546.417969 1601.105469 851.390625 1906.078125 1226.257812 1906.078125 C 1601.113281 1906.078125 1906.089844 1601.105469 1906.089844 1226.242188 C 1906.089844 851.386719 1601.113281 546.410156 1226.257812 546.410156" fill="#ffbd59"/></g></svg>